<svg id="Layer_1" data-name="Layer 1" xmlns="http://www.w3.org/2000/svg" viewBox="0 0 200 200"><defs><style>.cls-1{fill:#dd1e34;}.cls-2{fill:#c32033;}.cls-3{fill:#fff;}</style></defs><title>AngularJSWords</title><polygon class="cls-1" points="100 13.68 100 13.68 100 13.68 38.52 35.61 47.9 116.9 100 145.76 100 145.76 100 145.76 152.1 116.9 161.48 35.61 100 13.68"/><polygon class="cls-2" points="100 13.68 100 28.34 100 28.28 100 95.17 100 95.17 100 145.76 100 145.76 152.1 116.9 161.48 35.61 100 13.68"/><path class="cls-3" d="M100,28.28,61.57,114.46H75.9l7.72-19.29h32.63L124,114.46H138.3L100,28.28Zm11.23,55H88.77l11.23-27Z"/><path class="cls-1" d="M30.92,182.86V160h3l14,18.45V160H50.7v22.9h-3l-14-18.61v18.61ZM73.44,182a16.61,16.61,0,0,1-6,1.06Q55,183,55,171.09q0-11.28,12-11.29a21.08,21.08,0,0,1,6.4,1v2.56a17.06,17.06,0,0,0-6.08-1.12q-9.37,0-9.37,8.89,0,9.54,9.22,9.53a15.62,15.62,0,0,0,3.27-.38v-7.83h3Zm4.73-8V160h3V174q0,6.6,6.57,6.6t6.57-6.6V160h3V174q0,9-9.53,9t-9.61-9Zm27.31-14.06v20.54h12v2.4h-15V160Zm16.26,22.9h-3.07l11.39-25.93,11.39,25.93h-3.29l-3-7.21h-7.58l.82-2.4h5.76l-4.27-10.38Zm-114.06,0H4.6L16,156.93l11.39,25.93h-3.3l-3-7.21H13.55l.82-2.4h5.77l-4.28-10.38Zm136.89,0v-22.9h9.77q6.54,0,6.53,5.49c0,3-2.12,5.19-6.39,6.62l7.87,10.79h-3.91l-7.29-10.3v-1.94q6.57-1,6.57-5c0-2.12-1.22-3.17-3.65-3.17h-6.54v20.45Zm28.88-22.9v16.31q0,6.6-7.77,6.59v-2.36c3.21,0,4.81-1.39,4.81-4.19V160Zm5.29,22.1v-2.72a22.88,22.88,0,0,0,7.78,1.28c3.94,0,5.92-1.44,5.92-4.32,0-2.46-1.46-3.69-4.36-3.69h-3q-7.2,0-7.19-6.25,0-6.56,9.21-6.56a28,28,0,0,1,7.45,1v2.7a21.5,21.5,0,0,0-7.45-1.28c-4.16,0-6.25,1.39-6.25,4.16q0,3.69,4.23,3.69h3q7.32,0,7.32,6.24,0,6.75-8.87,6.73a29.67,29.67,0,0,1-7.79-.93Z"/></svg>