<?xml version="1.0" encoding="utf-8"?>
<!-- Generator: Adobe Illustrator 18.0.0, SVG Export Plug-In . SVG Version: 6.00 Build 0)  -->
<!DOCTYPE svg PUBLIC "-//W3C//DTD SVG 1.1//EN" "http://www.w3.org/Graphics/SVG/1.1/DTD/svg11.dtd">
<svg version="1.1" id="Layer_1" xmlns="http://www.w3.org/2000/svg" xmlns:xlink="http://www.w3.org/1999/xlink" x="0px" y="0px"
	 viewBox="0 0 500 500" enable-background="new 0 0 500 500" xml:space="preserve">
<g>
	<g id="SVGCleanerId_0_11_">
		<path fill="none" stroke="#000000" stroke-width="2" stroke-linecap="round" d="M485.7,212"/>
	</g>
</g>
<g>
	<g id="SVGCleanerId_0_10_">
		<path fill="none" stroke="#000000" stroke-width="2" stroke-linecap="round" d="M485.7,212"/>
	</g>
</g>
<g>
	<g id="SVGCleanerId_0_9_">
		<path fill="none" stroke="#000000" stroke-width="2" stroke-linecap="round" d="M485.7,212"/>
	</g>
</g>
<g>
	<g id="SVGCleanerId_0_8_">
		<path fill="none" stroke="#000000" stroke-width="2" stroke-linecap="round" d="M485.7,212"/>
	</g>
</g>
<g>
	<g id="SVGCleanerId_0_7_">
		<path fill="none" stroke="#000000" stroke-width="2" stroke-linecap="round" d="M485.7,212"/>
	</g>
</g>
<g>
	<g id="SVGCleanerId_0_6_">
		<path fill="none" stroke="#000000" stroke-width="2" stroke-linecap="round" d="M485.7,212"/>
	</g>
</g>
<path fill="none" stroke="#455963" stroke-linejoin="bevel" stroke-miterlimit="10" d="M132.9,436.9"/>
<g>
	<path fill="#928F8F" d="M248,77.4c90.7,0,164.5,73.8,164.5,164.5c0,90.7-73.8,164.5-164.5,164.5S83.5,332.6,83.5,241.9
		C83.5,151.2,157.3,77.4,248,77.4 M248,49.7c-106.1,0-192.2,86-192.2,192.2C55.8,348,141.9,434,248,434s192.2-86,192.2-192.2
		C440.2,135.7,354.2,49.7,248,49.7L248,49.7z"/>
</g>
<path fill="#928F8F" d="M178.8,202.4l67.7,67.6l67.7-67.6l20.8,20.8l-88.5,88.5L158,223.2L178.8,202.4z"/>
</svg>
