<?xml version="1.0" encoding="utf-8"?>
<!-- Generator: Adobe Illustrator 18.0.0, SVG Export Plug-In . SVG Version: 6.00 Build 0)  -->
<!DOCTYPE svg PUBLIC "-//W3C//DTD SVG 1.1//EN" "http://www.w3.org/Graphics/SVG/1.1/DTD/svg11.dtd">
<svg version="1.1" id="Layer_1" xmlns="http://www.w3.org/2000/svg" xmlns:xlink="http://www.w3.org/1999/xlink" x="0px" y="0px"
	 viewBox="0 0 500 500" enable-background="new 0 0 500 500" xml:space="preserve">
<g>
	<g id="SVGCleanerId_0_41_">
		<path fill="none" stroke="#000000" stroke-width="2" stroke-linecap="round" d="M485.7,212"/>
	</g>
</g>
<g>
	<g id="SVGCleanerId_0_40_">
		<path fill="none" stroke="#000000" stroke-width="2" stroke-linecap="round" d="M485.7,212"/>
	</g>
</g>
<g>
	<g id="SVGCleanerId_0_39_">
		<path fill="none" stroke="#000000" stroke-width="2" stroke-linecap="round" d="M485.7,212"/>
	</g>
</g>
<g>
	<g id="SVGCleanerId_0_38_">
		<path fill="none" stroke="#000000" stroke-width="2" stroke-linecap="round" d="M485.7,212"/>
	</g>
</g>
<g>
	<g id="SVGCleanerId_0_37_">
		<path fill="none" stroke="#000000" stroke-width="2" stroke-linecap="round" d="M485.7,212"/>
	</g>
</g>
<g>
	<g id="SVGCleanerId_0_36_">
		<path fill="none" stroke="#000000" stroke-width="2" stroke-linecap="round" d="M485.7,212"/>
	</g>
</g>
<path fill="none" stroke="#455963" stroke-linejoin="bevel" stroke-miterlimit="10" d="M139.1,429.2"/>
<g>
	<g>
		<g>
			<path fill="#928F8F" d="M362.3,391.4H142.5c-16,0-29-13-29-29c0-6.6,2.3-13,6.4-18.1l24.1-30.1L95.2,147.1
				c-1.5-5.2-6.4-8.8-11.8-8.8H61.7c-6.3,0-11.4-5.1-11.4-11.4s5.1-11.4,11.4-11.4h21.8c15.5,0,29.4,10.4,33.8,25.3l1.8,6.3h35.5
				c2,0,3.5,1.6,3.5,3.5c0,2-1.6,3.5-3.5,3.5h-38.2c-1.6,0-3-1-3.4-2.5l-2.6-8.9c-3.5-11.9-14.6-20.2-27-20.2H61.7
				c-2.4,0-4.4,2-4.4,4.4c0,2.4,2,4.4,4.4,4.4h21.8c8.6,0,16.2,5.7,18.6,13.9L151.3,314c0.3,1.1,0.1,2.3-0.6,3.2l-25.2,31.5
				c-3.1,3.9-4.8,8.7-4.8,13.7c0,12.1,9.8,21.9,21.9,21.9h219.8c2.4,0,4.4-2,4.4-4.4s-2-4.4-4.4-4.4H142.5
				c-7.3,0-13.2-5.9-13.2-13.2c0-3,1-5.9,2.9-8.3l25.4-31.8c0.7-0.8,1.7-1.3,2.8-1.3h155.2c10.8,0,20.8-6.3,25.4-16.1l55.2-117.3
				c1.4-2.9,2.1-6.1,2.1-9.3V176c0-12.1-9.8-21.9-21.9-21.9h-35.9c-2,0-3.5-1.6-3.5-3.5c0-2,1.6-3.5,3.5-3.5h35.9c16,0,29,13,29,29
				v2.2c0,4.2-1,8.5-2.8,12.4l-55.2,117.3c-5.8,12.3-18.3,20.2-31.8,20.2H162.1l-24.4,30.4c-0.9,1.1-1.3,2.4-1.3,3.8
				c0,3.4,2.7,6.1,6.1,6.1h219.8c6.3,0,11.5,5.1,11.5,11.4S368.6,391.4,362.3,391.4z"/>
		</g>
	</g>
	<g>
		<g>
			<path fill="#928F8F" d="M148.7,410.8c13.5,0,24.6,11,24.6,24.6c0,13.5-11,24.6-24.6,24.6c-13.5,0-24.6-11-24.6-24.6
				C124.1,421.8,135.2,410.8,148.7,410.8 M148.7,403.7c-17.5,0-31.6,14.2-31.6,31.6c0,17.5,14.2,31.6,31.6,31.6
				c17.5,0,31.6-14.2,31.6-31.6C180.4,417.9,166.2,403.7,148.7,403.7L148.7,403.7z"/>
		</g>
	</g>
	<g>
		<g>
			<path fill="#928F8F" d="M338.6,410.8c13.5,0,24.6,11,24.6,24.6c0,13.5-11,24.6-24.6,24.6c-13.5,0-24.6-11-24.6-24.6
				C314,421.8,325,410.8,338.6,410.8 M338.6,403.7c-17.5,0-31.6,14.2-31.6,31.6c0,17.5,14.2,31.6,31.6,31.6
				c17.5,0,31.6-14.2,31.6-31.6C370.2,417.9,356,403.7,338.6,403.7L338.6,403.7z"/>
		</g>
	</g>
</g>
<g>
	<path fill="#455963" d="M367,135.2c-0.4,0-0.8,0-1.2-0.1l-13.3-3.1c-1.1-0.2-2-0.8-2.6-1.7c-0.7-0.9-1-2-0.9-3.1l0.7-9.5
		c-0.9-0.6-1.8-1.2-2.8-2l-8.6,3.7c-0.5,0.3-1.8,0.6-3,0.3c-1-0.2-1.9-0.8-2.7-1.7c-8.2-11.8-8.6-14-8.2-15.6
		c0.2-0.9,0.7-1.7,1.6-2.5c0.7-0.6,2-1.6,3.9-3.1c1.2-1,2.3-1.8,3.2-2.5c-0.3-1.3-0.5-2.6-0.7-3.8l-9.2-3.7c-0.9-0.3-1.8-1-2.3-2.1
		c-0.5-1-0.6-2-0.4-3.1l3-12.9c0.2-1,0.8-1.8,1.6-2.5c1-0.8,2-1,2.7-1l10.5,0.8c0.6-0.9,1.3-1.8,2-2.7c-1-2.3-2.3-5-3.9-8.1
		c-0.5-1.3-0.6-2.3-0.4-3.1c0.3-1.1,0.9-2.1,1.8-2.7c1.3-1.1,3.8-2.8,7.5-4.9c4.7-2.8,6.5-3.2,7.6-3.2l0.8,0.1
		c1,0.2,1.9,0.7,2.6,1.6l5.9,7.2c1.1-0.2,2.2-0.4,3.4-0.5c1.5-4.3,2.8-7.4,3.8-9.3c1.1-2,3-2.9,5.2-2.4l13.3,3.1
		c1.1,0.2,2,0.8,2.6,1.7c0.7,0.9,1,2,0.9,3.1l-0.7,9.5c0.9,0.6,1.8,1.2,2.8,2l8.6-3.7c0.7-0.4,1.9-0.5,3-0.3c1,0.2,2,0.8,2.7,1.7
		c8.2,11.8,8.6,14,8.2,15.6c-0.2,0.9-0.7,1.7-1.6,2.4c-0.8,0.7-2.1,1.7-4,3.2c-1.2,0.9-2.2,1.8-3,2.4c0.3,1.4,0.5,2.6,0.7,3.8
		l9.2,3.6c1,0.5,1.8,1.2,2.3,2.1c0.5,1,0.6,2,0.4,3.1l-3,12.9c-0.2,0.9-0.8,1.8-1.6,2.5c-1,0.8-2,1-2.7,1l-10.5-0.8
		c-0.6,0.9-1.3,1.8-2,2.7c1,2.3,2.3,5,3.9,8.1c0.5,1.2,0.6,2.2,0.4,3.1c-0.3,1.5-1.2,2.3-1.9,2.7c-1.3,1.1-3.8,2.7-7.4,4.9
		c-4.7,2.8-6.4,3.2-7.5,3.2l0,0l-0.8-0.1c-1-0.2-1.9-0.8-2.6-1.5l-5.9-7.2c-1.1,0.2-2.3,0.4-3.4,0.5c-1.5,4.3-2.8,7.3-3.8,9.3
		C370.1,134.3,368.7,135.2,367,135.2z M347.7,110.2l1.1,0.9c1.6,1.3,3.1,2.4,4.5,3.2l1.3,0.7l-1,12.6l13.2,2.9c1.1-2,2.4-5.4,4-10.1
		l0.5-1.5l1.6-0.1c1.9-0.1,3.8-0.4,5.6-0.8l1.4-0.3l7.7,9.4c0.1,0,1.2-0.3,5-2.5c3.4-2,5.8-3.6,7.1-4.7c-1.9-3.6-3.5-6.8-4.6-9.5
		l-0.6-1.4l1-1.1c1.3-1.6,2.5-3,3.3-4.4l0.8-1.3l13,1l2.7-12.8l-11.7-4.5l-0.1-1.4c-0.1-1.6-0.5-3.6-1-6l-0.3-1.3l1-0.9
		c1-0.9,2.4-2.1,4.3-3.6c1.7-1.3,3-2.3,3.7-2.9c-0.3-0.9-1.7-3.8-7.2-11.8l-11.3,4.9l-1.1-0.9c-1.6-1.3-3.1-2.4-4.5-3.2l-1.3-0.7
		l1-12.6l-13.3-2.9c-0.9,1.9-2.3,5.3-4,10l-0.5,1.5l-1.5,0.1c-2.1,0.2-4,0.5-5.7,0.9l-1.4,0.4l-7.7-9.4c-0.1,0-1.2,0.2-5,2.5
		c-3.4,2-5.8,3.6-7,4.6c1.9,3.7,3.5,7,4.6,9.6l0.6,1.4l-1,1.1c-1.4,1.6-2.5,3.1-3.3,4.5l-0.8,1.3l-13-1l-2.7,12.8l11.7,4.5l0.1,1.4
		c0.2,1.8,0.5,3.8,1.1,5.9l0.4,1.4l-1.1,1c-1,0.9-2.5,2.1-4.5,3.5c-1.9,1.4-3.1,2.4-3.7,2.9c0.1,0,0.8,2.3,7.3,11.7L347.7,110.2z
		 M370.6,107.3c-1.7,0-3.4-0.2-5.2-0.6c-5.7-1.3-10.1-4.5-13.2-9.3c-3.1-4.9-4-10.2-2.7-15.7c1.3-5.6,4.5-9.9,9.4-12.9
		c4.9-3,10.3-3.8,16-2.5c5.7,1.3,10.1,4.5,13.2,9.3c3.1,4.9,4,10.2,2.7,15.7c-1.3,5.6-4.5,9.9-9.4,12.9
		C378.1,106.2,374.4,107.3,370.6,107.3z M369.8,70.4c-3,0-5.7,0.8-8.4,2.4c-3.9,2.3-6.2,5.6-7.3,9.9c-1,4.3-0.3,8.3,2.1,12.1
		c2.4,3.8,5.8,6.2,10.3,7.3c4.5,1,8.6,0.4,12.5-1.9c3.9-2.3,6.2-5.6,7.3-9.9c1-4.3,0.3-8.3-2.1-12.1c-2.5-3.8-5.8-6.2-10.3-7.3
		C372.5,70.5,371.1,70.4,369.8,70.4z"/>
</g>
<path fill="none" stroke="#455963" stroke-width="7" stroke-miterlimit="10" d="M276.5,212.2c-7.3,7.1-16.2,10.7-26.5,10.7
	c-10.4,0-19.2-3.6-26.5-10.7c-7.3-7.1-11-15.8-11-25.8c0-10.1,3.7-18.7,11-25.8c7.3-7.1,16.2-10.7,26.5-10.7
	c10.4,0,19.2,3.6,26.5,10.7c7.3,7.1,11,15.7,11,25.8C287.5,196.5,283.9,205.1,276.5,212.2z M327.2,237.6c0-1-0.3-1.9-1-2.9
	c-5.5-6.4-9.9-11.8-13.2-16.4c2.1-3.9,3.6-7.5,4.7-10.8l22.7-3.4c0.9-0.1,1.7-0.6,2.3-1.5c0.7-0.9,1-1.8,1-2.8v-26.4
	c0-1-0.3-2-1-2.8c-0.7-0.8-1.5-1.3-2.5-1.5l-22.3-3.3c-1.1-3.2-2.7-7.1-5-11.7c1.5-2.1,3.7-5,6.6-8.6c2.9-3.6,5-6.2,6.2-7.7
	c0.7-1,1-1.9,1-2.7c0-2.6-7-10.2-21.1-22.8c-1-0.8-2-1.1-3.1-1.1c-1.2,0-2.1,0.3-2.9,1l-17.3,12.7c-4-2-7.7-3.5-11-4.4L268,98.6
	c-0.1-1-0.6-1.8-1.5-2.5c-0.9-0.7-1.9-1.1-2.9-1.1h-27.3c-2.2,0-3.7,1.1-4.4,3.4c-1.2,4.4-2.3,11.7-3.4,22c-4.2,1.3-8,2.9-11.3,4.6
	l-16.9-12.8c-1-0.7-2-1-3.1-1c-1.9,0-5.7,2.8-11.6,8.4c-5.9,5.6-9.9,9.8-12,12.7c-0.7,0.8-1,1.7-1,2.9c0,0.9,0.3,1.8,1,2.9
	c5.5,6.4,9.9,11.8,13.2,16.4c-2.1,3.9-3.6,7.5-4.7,10.8l-22.7,3.4c-0.9,0.1-1.7,0.6-2.3,1.5c-0.7,0.9-1,1.8-1,2.8v26.4
	c0,1,0.3,2,1,2.8c0.7,0.8,1.5,1.3,2.5,1.4l22.3,3.4c1.2,3.6,2.9,7.5,5.1,11.7c-1.6,2.1-3.9,5-6.9,8.7c-3,3.7-5,6.2-6,7.6
	c-0.7,1-1,1.9-1,2.7c0,2.6,7,10.2,21.1,22.8c1,0.8,2,1.1,3.1,1.1c1.3,0,2.2-0.3,2.9-1l17.3-12.7c4,2,7.7,3.5,11,4.4l3.4,21.8
	c0.1,1,0.6,1.8,1.5,2.5c0.9,0.7,1.9,1.1,2.9,1.1h27.3c2.2,0,3.7-1.1,4.4-3.4c1.2-4.5,2.3-11.8,3.4-22.1c3.9-1.1,7.7-2.6,11.3-4.4
	l16.9,12.8c1,0.7,2,1,3.1,1c1.9,0,5.7-2.8,11.5-8.5c5.8-5.7,9.8-9.9,12.1-12.8C326.9,239.7,327.2,238.8,327.2,237.6z"/>
</svg>
