<?xml version="1.0" encoding="utf-8"?>
<!-- Generator: Adobe Illustrator 18.0.0, SVG Export Plug-In . SVG Version: 6.00 Build 0)  -->
<!DOCTYPE svg PUBLIC "-//W3C//DTD SVG 1.1//EN" "http://www.w3.org/Graphics/SVG/1.1/DTD/svg11.dtd">
<svg version="1.1" id="Layer_1" xmlns="http://www.w3.org/2000/svg" xmlns:xlink="http://www.w3.org/1999/xlink" x="0px" y="0px"
	 viewBox="0 0 500 500" enable-background="new 0 0 500 500" xml:space="preserve">
<g>
	<g>
		<g>
			<path fill="#928F8F" d="M367.4,469.8H186.2c-18.1,0-32.8-14.7-32.8-32.8V183.7c0-2.4,1.9-4.3,4.3-4.3c2.4,0,4.3,1.9,4.3,4.3V437
				c0,13.3,10.8,24.1,24.1,24.1h181.2c13.3,0,24.1-10.8,24.1-24.1v-93.8c0-2.4,1.9-4.3,4.3-4.3s4.3,1.9,4.3,4.3V437
				C400.2,455.1,385.5,469.8,367.4,469.8z"/>
		</g>
		<g>
			<path fill="#928F8F" d="M395.9,270c-2.4,0-4.3-1.9-4.3-4.3V74.5c0-13.3-10.8-24.1-24.1-24.1H186.2c-12.9,0-23.5,10.2-24.1,23
				c0,0.4,0,0.8,0,1.1v3.3c0,2.4-1.9,4.3-4.3,4.3c-2.4,0-4.3-1.9-4.3-4.3v-3.3c0-0.5,0-0.9,0-1.4c0.7-17.4,15.1-31.4,32.8-31.4
				h181.2c18.1,0,32.8,14.7,32.8,32.8v191.1C400.2,268.1,398.3,270,395.9,270z"/>
		</g>
	</g>
	<g>
		<rect x="160.1" y="417" fill="#928F8F" width="232.4" height="8.7"/>
	</g>
</g>
<g>
	<g>
		<g>
			<path fill="#928F8F" d="M215.2,401.5h-36.9c-1.6,0-2.9-1.3-2.9-2.9v-35.1c0-1.6,1.3-2.9,2.9-2.9h36.9c1.6,0,2.9,1.3,2.9,2.9v35.1
				C218.1,400.2,216.8,401.5,215.2,401.5z M181.2,395.7h31.1v-29.3h-31.1V395.7z"/>
		</g>
		<g>
			<path fill="#928F8F" d="M266.9,401.5H230c-1.6,0-2.9-1.3-2.9-2.9v-35.1c0-1.6,1.3-2.9,2.9-2.9h36.9c1.6,0,2.9,1.3,2.9,2.9v35.1
				C269.8,400.2,268.5,401.5,266.9,401.5z M232.9,395.7H264v-29.3h-31.1V395.7z"/>
		</g>
		<g>
			<path fill="#928F8F" d="M322.2,401.5h-36.9c-1.6,0-2.9-1.3-2.9-2.9v-35.1c0-1.6,1.3-2.9,2.9-2.9h36.9c1.6,0,2.9,1.3,2.9,2.9v35.1
				C325.1,400.2,323.8,401.5,322.2,401.5z M288.3,395.7h31.1v-29.3h-31.1V395.7z"/>
		</g>
		<g>
			<path fill="#928F8F" d="M375.4,401.5h-36.9c-1.6,0-2.9-1.3-2.9-2.9v-35.1c0-1.6,1.3-2.9,2.9-2.9h36.9c1.6,0,2.9,1.3,2.9,2.9v35.1
				C378.3,400.2,377,401.5,375.4,401.5z M341.4,395.7h31.1v-29.3h-31.1V395.7z"/>
		</g>
	</g>
	<g>
		<path fill="#928F8F" d="M280.5,457.2c-3.6,0-6.8-1.3-9.4-3.9c-2.5-2.5-3.9-5.8-3.9-9.4c0-3.6,1.3-6.8,3.9-9.4
			c5.1-5.1,13.7-5.1,18.7,0c2.5,2.5,3.9,5.8,3.9,9.4c0,3.6-1.3,6.8-3.9,9.4C287.3,455.8,284.1,457.2,280.5,457.2z M280.5,439.3
			c-1.3,0-2.3,0.4-3.2,1.3c-0.9,0.9-1.3,1.9-1.3,3.2c0,1.3,0.4,2.3,1.3,3.2c1.9,1.9,4.6,1.9,6.5,0c0.9-0.9,1.3-1.9,1.3-3.2
			c0-1.3-0.4-2.3-1.3-3.2C282.8,439.7,281.8,439.3,280.5,439.3z"/>
	</g>
</g>
<g>
	<g>
		<g>
			<rect x="304.6" y="296.6" fill="#455963" width="17.4" height="17.4"/>
		</g>
	</g>
	<g>
		<g>
			<rect x="330.6" y="296.6" fill="#455963" width="17.4" height="17.4"/>
		</g>
	</g>
	<g>
		<g>
			<rect x="356.7" y="296.6" fill="#455963" width="17.4" height="17.4"/>
		</g>
	</g>
</g>
<g>
	<g>
		<path fill="#455963" d="M114.8,136.1c0,4.6-3.7,8.3-8.3,8.3c-4.6,0-8.3-3.7-8.3-8.3c0-4.6,3.7-8.3,8.3-8.3
			C111.1,127.8,114.8,131.5,114.8,136.1L114.8,136.1z M114.8,136.1"/>
	</g>
	<g>
		<path fill="#455963" d="M150.7,136.1c0,4.6-3.7,8.3-8.3,8.3c-4.6,0-8.3-3.7-8.3-8.3c0-4.6,3.7-8.3,8.3-8.3
			C147,127.8,150.7,131.5,150.7,136.1L150.7,136.1z M150.7,136.1"/>
	</g>
	<g>
		<path fill="#455963" d="M186.6,136.1c0,4.6-3.7,8.3-8.3,8.3c-4.6,0-8.3-3.7-8.3-8.3c0-4.6,3.7-8.3,8.3-8.3
			C182.9,127.8,186.6,131.5,186.6,136.1L186.6,136.1z M186.6,136.1"/>
	</g>
</g>
<g>
	<path fill="#455963" d="M479.3,331.9H292.9c-5.6,0-10.2-4.6-10.2-10.2v-32.9c0-5.6,4.6-10.2,10.2-10.2h186.4
		c5.6,0,10.2,4.6,10.2,10.2v32.9C489.5,327.3,484.9,331.9,479.3,331.9z M292.9,286.2c-1.5,0-2.7,1.2-2.7,2.7v32.9
		c0,1.5,1.2,2.7,2.7,2.7h186.4c1.5,0,2.7-1.2,2.7-2.7v-32.9c0-1.5-1.2-2.7-2.7-2.7H292.9z"/>
</g>
<path fill="#455963" d="M195.7,100.1L195.7,100.1c4.8,0,8.1,2.8,8.1,5.3v52.8c0,2.5-3.3,5.3-8.1,5.3l-52.3,0.2
	c-1.7,0-3.4,0.6-4.6,1.8l-19,17v-11.8c0-3.9-3.1-7-7-7H91.1c-4.8,0-8.1-2.8-8.1-5.3v-52.8c0-2.5,3.3-5.3,8.1-5.3L195.7,100.1
	 M195.7,93.1L91.1,93.2c-8.3,0-15.1,5.5-15.1,12.3v52.8c0,6.8,6.8,12.3,15.1,12.3h21.7v27.5l30.6-27.5l52.3-0.2
	c8.3,0,15.1-5.5,15.1-12.3v-52.8C210.8,98.6,204.1,93.1,195.7,93.1L195.7,93.1z"/>
<g>
	<path fill="#455963" d="M275.5,256.7c-0.4,0-0.8,0-1.2-0.1l-13.3-3.1c-1.1-0.2-2-0.8-2.6-1.7c-0.7-0.9-1-2-0.9-3.1l0.7-9.5
		c-0.9-0.6-1.8-1.2-2.8-2l-8.6,3.7c-0.5,0.3-1.8,0.6-3,0.3c-1-0.2-1.9-0.8-2.7-1.7c-8.2-11.8-8.6-14-8.2-15.6
		c0.2-0.9,0.7-1.7,1.6-2.5c0.7-0.6,2-1.6,3.9-3.1c1.2-1,2.3-1.8,3.2-2.5c-0.3-1.3-0.5-2.6-0.7-3.8l-9.2-3.7c-0.9-0.3-1.8-1-2.3-2.1
		c-0.5-1-0.6-2-0.4-3.1l3-12.9c0.2-1,0.8-1.8,1.6-2.5c1-0.8,2-1,2.7-1l10.5,0.8c0.6-0.9,1.3-1.8,2-2.7c-1-2.3-2.3-5-3.9-8.1
		c-0.5-1.3-0.6-2.3-0.4-3.1c0.3-1.1,0.9-2.1,1.8-2.7c1.3-1.1,3.8-2.8,7.5-4.9c4.7-2.8,6.5-3.2,7.6-3.2l0.8,0.1
		c1,0.2,1.9,0.7,2.6,1.6l5.9,7.2c1.1-0.2,2.2-0.4,3.4-0.5c1.5-4.3,2.8-7.4,3.8-9.3c1.1-2,3-2.9,5.2-2.4l13.3,3.1
		c1.1,0.2,2,0.8,2.6,1.7c0.7,0.9,1,2,0.9,3.1l-0.7,9.5c0.9,0.6,1.8,1.2,2.8,2l8.6-3.7c0.7-0.4,1.9-0.5,3-0.3c1,0.2,2,0.8,2.7,1.7
		c8.2,11.8,8.6,14,8.2,15.6c-0.2,0.9-0.7,1.7-1.6,2.4c-0.8,0.7-2.1,1.7-4,3.2c-1.2,0.9-2.2,1.8-3,2.4c0.3,1.4,0.5,2.6,0.7,3.8
		l9.2,3.6c1,0.5,1.8,1.2,2.3,2.1c0.5,1,0.6,2,0.4,3.1l-3,12.9c-0.2,0.9-0.8,1.8-1.6,2.5c-1,0.8-2,1-2.7,1l-10.5-0.8
		c-0.6,0.9-1.3,1.8-2,2.7c1,2.3,2.3,5,3.9,8.1c0.5,1.2,0.6,2.2,0.4,3.1c-0.3,1.5-1.2,2.3-1.9,2.7c-1.3,1.1-3.8,2.7-7.4,4.9
		c-4.7,2.8-6.4,3.2-7.5,3.2l0,0l-0.8-0.1c-1-0.2-1.9-0.8-2.6-1.5l-5.9-7.2c-1.1,0.2-2.3,0.4-3.4,0.5c-1.5,4.3-2.8,7.3-3.8,9.3
		C278.6,255.8,277.2,256.7,275.5,256.7z M256.2,231.7l1.1,0.9c1.6,1.3,3.1,2.4,4.5,3.2l1.3,0.7l-1,12.6l13.2,2.9
		c1.1-2,2.4-5.4,4-10.1l0.5-1.5l1.6-0.1c1.9-0.1,3.8-0.4,5.6-0.8l1.4-0.3l7.7,9.4c0.1,0,1.2-0.3,5-2.5c3.4-2,5.8-3.6,7.1-4.7
		c-1.9-3.6-3.5-6.8-4.6-9.5l-0.6-1.4l1-1.1c1.3-1.6,2.5-3,3.3-4.4l0.8-1.3l13,1l2.7-12.8l-11.7-4.5l-0.1-1.4c-0.1-1.6-0.5-3.6-1-6
		l-0.3-1.3l1-0.9c1-0.9,2.4-2.1,4.3-3.6c1.7-1.3,3-2.3,3.7-2.9c-0.3-0.9-1.7-3.8-7.2-11.8l-11.3,4.9l-1.1-0.9
		c-1.6-1.3-3.1-2.4-4.5-3.2l-1.3-0.7l1-12.6L282,164c-0.9,1.9-2.3,5.3-4,10l-0.5,1.5l-1.5,0.1c-2.1,0.2-4,0.5-5.7,0.9l-1.4,0.4
		l-7.7-9.4c-0.1,0-1.2,0.2-5,2.5c-3.4,2-5.8,3.6-7,4.6c1.9,3.7,3.5,7,4.6,9.6l0.6,1.4l-1,1.1c-1.4,1.6-2.5,3.1-3.3,4.5l-0.8,1.3
		l-13-1l-2.7,12.8l11.7,4.5l0.1,1.4c0.2,1.8,0.5,3.8,1.1,5.9l0.4,1.4l-1.1,1c-1,0.9-2.5,2.1-4.5,3.5c-1.9,1.4-3.1,2.4-3.7,2.9
		c0.1,0,0.8,2.3,7.3,11.7L256.2,231.7z M279.1,228.8c-1.7,0-3.4-0.2-5.2-0.6c-5.7-1.3-10.1-4.5-13.2-9.3c-3.1-4.9-4-10.2-2.7-15.7
		c1.3-5.6,4.5-9.9,9.4-12.9c4.9-3,10.3-3.8,16-2.5c5.7,1.3,10.1,4.5,13.2,9.3c3.1,4.9,4,10.2,2.7,15.7c-1.3,5.6-4.5,9.9-9.4,12.9
		C286.6,227.7,282.9,228.8,279.1,228.8z M278.3,191.9c-3,0-5.7,0.8-8.4,2.4c-3.9,2.3-6.2,5.6-7.3,9.9c-1,4.3-0.3,8.3,2.1,12.1
		c2.4,3.8,5.8,6.2,10.3,7.3c4.5,1,8.6,0.4,12.5-1.9c3.9-2.3,6.2-5.6,7.3-9.9c1-4.3,0.3-8.3-2.1-12.1c-2.5-3.8-5.8-6.2-10.3-7.3
		C281,192,279.6,191.9,278.3,191.9z"/>
</g>
</svg>
