<?xml version="1.0" encoding="utf-8"?>
<!-- Generator: Adobe Illustrator 18.0.0, SVG Export Plug-In . SVG Version: 6.00 Build 0)  -->
<!DOCTYPE svg PUBLIC "-//W3C//DTD SVG 1.1//EN" "http://www.w3.org/Graphics/SVG/1.1/DTD/svg11.dtd">
<svg version="1.1" id="Layer_1" xmlns="http://www.w3.org/2000/svg" xmlns:xlink="http://www.w3.org/1999/xlink" x="0px" y="0px"
	 viewBox="0 0 500 500" enable-background="new 0 0 500 500" xml:space="preserve">
<g>
	<g>
		<path fill="#455963" d="M463,462.7h-80.4c-4.9,0-8.9-4-8.9-8.9v-150c0-4.9,4-8.9,8.9-8.9H463c4.9,0,8.9,4,8.9,8.9v150
			C471.8,458.8,467.8,462.7,463,462.7z M382.6,301.6c-1.2,0-2.2,1-2.2,2.2v150c0,1.2,1,2.2,2.2,2.2H463c1.2,0,2.2-1,2.2-2.2v-150
			c0-1.2-1-2.2-2.2-2.2H382.6z"/>
	</g>
	<g>
		<rect x="378.1" y="425" fill="#455963" width="89.3" height="6.7"/>
	</g>
	<g>
		<path fill="#455963" d="M425.7,453c-2.3,0-4.3-0.8-5.9-2.5c-1.6-1.6-2.5-3.6-2.5-5.9s0.8-4.3,2.5-5.9c3.3-3.3,8.6-3.3,11.9,0
			c1.6,1.6,2.5,3.6,2.5,5.9c0,2.3-0.8,4.3-2.5,5.9C430,452.1,428,453,425.7,453z M425.7,440.6c-1.1,0-2,0.4-2.8,1.2
			c-0.8,0.8-1.2,1.7-1.2,2.8s0.4,2,1.2,2.8c1.6,1.6,4,1.6,5.6,0c0.8-0.8,1.2-1.7,1.2-2.8s-0.4-2-1.2-2.8
			C427.7,441,426.8,440.6,425.7,440.6z"/>
	</g>
	<g>
		<path fill="#928F8F" d="M354.2,467H200.4c-3.5,0-6.3-2.8-6.3-6.3V448c0-3.5,2.8-6.3,6.3-6.3h33.5v-10.6c0-3.5,2.8-6.3,6.3-6.3
			h63.1c3.5,0,6.3,2.8,6.3,6.3v10.6h44.7c1.7,0,3.3,0.7,4.5,1.9c1.2,1.2,1.8,2.8,1.8,4.4v12.7C360.5,464.1,357.7,467,354.2,467z
			 M200.7,460.3h153.1v-11.9h-44.7c-3.5,0-6.3-2.8-6.3-6.3v-10.6h-62.3v10.6c0,3.5-2.8,6.3-6.3,6.3h-33.5V460.3z"/>
	</g>
	<g>
		<path fill="#928F8F" d="M356.9,415.7H201.4c-1.8,0-3.3-1.5-3.3-3.3s1.5-3.3,3.3-3.3h155.5c1.8,0,3.3,1.5,3.3,3.3
			S358.7,415.7,356.9,415.7z M273.6,398.2c-6.9,0-12.5-5.6-12.5-12.5c0-6.9,5.6-12.5,12.5-12.5c6.9,0,12.5,5.6,12.5,12.5
			C286,392.6,280.4,398.2,273.6,398.2z M273.6,379.9c-3.2,0-5.8,2.6-5.8,5.8c0,3.2,2.6,5.8,5.8,5.8c3.2,0,5.8-2.6,5.8-5.8
			C279.4,382.5,276.8,379.9,273.6,379.9z M445.8,269.2c-1.8,0-3.3-1.5-3.3-3.3v-97.3c0-9.4-7.6-17-17-17H103.9c-9.4,0-17,7.6-17,17
			v52.9c0,1.8-1.5,3.3-3.3,3.3s-3.3-1.5-3.3-3.3v-52.9c0-13,10.6-23.6,23.6-23.6h321.6c13,0,23.6,10.6,23.6,23.6v97.3
			C449.1,267.7,447.6,269.2,445.8,269.2z"/>
	</g>
	<g>
		<rect x="31.5" y="419.1" fill="#455963" width="145.5" height="6.7"/>
	</g>
	<g>
		<path fill="#455963" d="M161,465.8H44.6c-9.1,0-16.4-7.4-16.4-16.4V258.2c0-9.1,7.4-16.4,16.4-16.4H161c9.1,0,16.4,7.4,16.4,16.4
			v191.2C177.4,458.5,170,465.8,161,465.8z M44.6,248.4c-5.4,0-9.8,4.4-9.8,9.8v191.2c0,5.4,4.4,9.8,9.8,9.8H161
			c5.4,0,9.8-4.4,9.8-9.8V258.2c0-5.4-4.4-9.8-9.8-9.8H44.6z"/>
	</g>
	<g>
		<path fill="#455963" d="M102.8,452.7c-5.2,0-9.4-4.2-9.4-9.4c0-5.2,4.2-9.4,9.4-9.4s9.4,4.2,9.4,9.4
			C112.2,448.5,108,452.7,102.8,452.7z M102.8,438.4c-2.7,0-4.9,2.2-4.9,4.9c0,2.7,2.2,4.9,4.9,4.9c2.7,0,4.9-2.2,4.9-4.9
			C107.7,440.6,105.5,438.4,102.8,438.4z"/>
	</g>
	<g>
		<path fill="none" stroke="#000000" stroke-width="2" stroke-miterlimit="10" d="M163.6,435.9"/>
	</g>
	<g>
		<g>
			<path fill="#928F8F" d="M242.4,258.5v10.1l-25.8,9.9l25.8,9.9v10.1l-38-14.9v-10.3L242.4,258.5z"/>
		</g>
		<g>
			<path fill="#928F8F" d="M277.5,307.2l-10.1-3l20.2-63.2l10.1,3L277.5,307.2z"/>
		</g>
		<g>
			<path fill="#928F8F" d="M322.8,258.5l38,14.8v10.3l-38,14.9v-10.1l25.7-9.9l-25.7-9.9V258.5z"/>
		</g>
	</g>
	<g>
		<g>
			<path fill="#455963" d="M82.8,328.9v5L70,338.9l12.8,4.9v5l-18.9-7.4v-5.2L82.8,328.9z"/>
		</g>
		<g>
			<path fill="#455963" d="M100.2,353.2l-5-1.5l10.1-31.5l5,1.5L100.2,353.2z"/>
		</g>
		<g>
			<path fill="#455963" d="M122.8,328.9l18.9,7.4v5.2l-18.9,7.4v-5l12.8-4.9l-12.8-4.9V328.9z"/>
		</g>
	</g>
	<g>
		<g>
			<path fill="#455963" d="M409.5,357.4v3.3l-8.5,3.2l8.5,3.2v3.3l-12.5-4.9v-3.4L409.5,357.4z"/>
		</g>
		<g>
			<path fill="#455963" d="M421.1,373.5l-3.3-1l6.7-20.8l3.3,1L421.1,373.5z"/>
		</g>
		<g>
			<path fill="#455963" d="M436,357.4l12.5,4.9v3.4l-12.5,4.9v-3.3l8.5-3.2l-8.5-3.2V357.4z"/>
		</g>
	</g>
</g>
</svg>
